<svg xmlns="http://www.w3.org/2000/svg" viewBox="0 0 303.01 303.01"><defs><style>.cls-1,.cls-3,.cls-6{fill:#94daf8;}.cls-1{opacity:0.33;isolation:isolate;}.cls-2,.cls-4{fill:none;}.cls-3{opacity:0.51;}.cls-4{stroke:#0c3142;stroke-miterlimit:10;stroke-width:2px;}.cls-5{fill:#42a5dc;}.cls-7{fill:#fff;}</style></defs><title>not_available</title><g id="Layer_2" data-name="Layer 2"><g id="Layer_1-2" data-name="Layer 1"><circle class="cls-1" cx="151.5" cy="151.5" r="151.5"/><circle class="cls-2" cx="151.5" cy="151.5" r="151.5"/><circle class="cls-2" cx="151.5" cy="151.5" r="151.5"/><circle class="cls-2" cx="151.5" cy="151.5" r="151.5"/><path class="cls-3" d="M214.67,14.22S32.84,231.34,27.94,238c21,33.74,59,49.7,59,49.7L274.89,63.27S250.44,29.23,214.67,14.22Z"/><polyline class="cls-4" points="109.95 114.67 142.57 66.78 186.71 102.79"/><rect class="cls-5" x="52.49" y="97.22" width="201.19" height="122.95" rx="12.17" ry="12.17" transform="translate(-21.67 24.23) rotate(-8.45)"/><circle class="cls-6" cx="143.45" cy="66.85" r="7.5"/><path class="cls-7" d="M136.86,132.74l4.41-.66,2.79,18.84-3.48.52-9.86-9.55,1.6,10.77-4.38.65-2.8-18.83,3.44-.51,9.88,9.54Z"/><path class="cls-7" d="M153,148.62a8.15,8.15,0,0,1-3.64-2.9,12.55,12.55,0,0,1-1.51-10.24,8.06,8.06,0,0,1,2.64-3.82,10.56,10.56,0,0,1,9.61-1.42,7.87,7.87,0,0,1,3.63,2.89,12.57,12.57,0,0,1,1.5,10.23,8,8,0,0,1-2.64,3.83,9.33,9.33,0,0,1-4.6,1.9A9.45,9.45,0,0,1,153,148.62Zm7.41-5.28a7.17,7.17,0,0,0,.5-4.56,7.08,7.08,0,0,0-1.82-4.21,4.21,4.21,0,0,0-6.39.93,7.16,7.16,0,0,0-.51,4.57,7.24,7.24,0,0,0,1.81,4.24,4.21,4.21,0,0,0,6.41-1Z"/><path class="cls-7" d="M174.93,146.34l-2.21-14.86-5.41.81-.59-4L182.31,126l.59,4-5.41.8,2.21,14.86Z"/><path class="cls-7" d="M91.94,191.43l-2.2-3.67-8,1.19-1,4.14L76,193.8l5.64-20.09,3.74-.56L96.6,190.73ZM82.71,185l5-.74-3.38-5.67Z"/><path class="cls-7" d="M108.29,169.75l4.77-.71-5.43,20.06-3.75.55L92.86,172l4.9-.73,7.14,11.94Z"/><path class="cls-7" d="M130.9,185.64,128.71,182l-8,1.19-1,4.14-4.75.7,5.64-20.09,3.74-.55L135.57,185Zm-9.22-6.38,5-.74-3.38-5.67Z"/><path class="cls-7" d="M138.7,184.49l-2.8-18.84,4.72-.7,2.79,18.83Z"/><path class="cls-7" d="M148.74,183,146,164.16l4.71-.7,2.21,14.85,7.69-1.14.59,4Z"/><path class="cls-7" d="M179.33,178.45l-2.2-3.66-8,1.19-1,4.14-4.74.7L169,160.74l3.75-.56L184,177.76Zm-9.23-6.38,5-.74-3.38-5.67Z"/><path class="cls-7" d="M200.48,167.05a5,5,0,0,1,1.28,2.8,4.79,4.79,0,0,1-.38,2.83,5.2,5.2,0,0,1-2,2.14,8.36,8.36,0,0,1-3.3,1.14l-9,1.34-2.8-18.84,8.74-1.3a7.27,7.27,0,0,1,4.73.65,4.38,4.38,0,0,1,2.2,3.32,4.5,4.5,0,0,1-.36,2.66,4.28,4.28,0,0,1-1.84,1.93A4.63,4.63,0,0,1,200.48,167.05ZM190,165.18l3.36-.5a3.5,3.5,0,0,0,1.88-.71,1.57,1.57,0,0,0,.42-1.46,1.7,1.7,0,0,0-.83-1.35,3.32,3.32,0,0,0-2-.16l-3.36.49Zm6.91,6.39a1.85,1.85,0,0,0,.37-1.63,1.81,1.81,0,0,0-.83-1.44,3.38,3.38,0,0,0-2.08-.17l-3.82.57.6,4,3.82-.56A3.39,3.39,0,0,0,196.92,171.57Z"/><path class="cls-7" d="M207,174.35l-2.8-18.84,4.72-.7,2.2,14.86,7.69-1.14.59,4Z"/><path class="cls-7" d="M223.7,171.87,220.9,153l12.85-1.91.56,3.8-8.25,1.22.53,3.58,7.74-1.14.56,3.76-7.74,1.15.57,3.9,8.26-1.22.56,3.79Z"/></g></g></svg>